<svg xmlns="http://www.w3.org/2000/svg" viewBox="0 0 800 300" width="800" height="300" role="img" aria-label="待受け中の確保量の比較">
			<defs>
				<linearGradient id="i1" x1="0" y1="1" x2="0" y2="0"><stop offset="0" stop-color="hsl(280,78%,25%)"/><stop offset="1" stop-color="hsl(280,58%,55%)"/></linearGradient>
				<linearGradient id="i2" x1="0" y1="1" x2="0" y2="0"><stop offset="0" stop-color="hsl(210,78%,25%)"/><stop offset="1" stop-color="hsl(210,58%,55%)"/></linearGradient>
				<linearGradient id="i3" x1="0" y1="1" x2="0" y2="0"><stop offset="0" stop-color="hsl(140,78%,25%)"/><stop offset="1" stop-color="hsl(140,58%,55%)"/></linearGradient>
				<linearGradient id="i4" x1="0" y1="1" x2="0" y2="0"><stop offset="0" stop-color="hsl(70,78%,25%)"/><stop offset="1" stop-color="hsl(70,58%,55%)"/></linearGradient>
				<linearGradient id="i5" x1="0" y1="1" x2="0" y2="0"><stop offset="0" stop-color="hsl(0,78%,25%)"/><stop offset="1" stop-color="hsl(0,58%,55%)"/></linearGradient>
			</defs>
	<rect width="100%" height="100%" fill="#ffffff"/>
			<rect width="100%" height="100%" fill="#ffffff"/>
			<text x="10" y="22" font-size="14" font-weight="700" fill="#1c2330">待受け中の確保量（Private Bytes / MB・小さいほど良い）</text>
			<g stroke="#d9dfe8" stroke-width="1">
				<line x1="140" y1="36" x2="140" y2="248"/>
				<line x1="260.5" y1="36" x2="260.5" y2="248"/>
				<line x1="380.9" y1="36" x2="380.9" y2="248"/>
				<line x1="501.4" y1="36" x2="501.4" y2="248"/>
				<line x1="621.8" y1="36" x2="621.8" y2="248"/>
			</g>
			<g font-size="12" fill="#4a5568" text-anchor="middle">
				<text x="140" y="268">0</text><text x="260.5" y="268">25</text><text x="380.9" y="268">50</text><text x="501.4" y="268">75</text><text x="621.8" y="268">100</text>
			</g>
			<g font-size="13" fill="#1c2330" text-anchor="end" font-weight="700">
				<text x="130" y="63">C# 版</text>
				<text x="130" y="107">node 版</text>
				<text x="130" y="151">bun 版</text>
				<text x="130" y="195">Rust 版</text>
				<text x="130" y="239">Go 版</text>
			</g>
			<rect x="140" y="46" width="89.3" height="24" rx="3" fill="url(#i1)"/>
			<rect x="140" y="90" width="300.8" height="24" rx="3" fill="url(#i2)"/>
			<rect x="140" y="134" width="522.4" height="24" rx="3" fill="url(#i3)"/>
			<rect x="140" y="178" width="4" height="24" rx="1" fill="url(#i4)"/>
			<rect x="140" y="222" width="217.5" height="24" rx="3" fill="url(#i5)"/>
			<g font-size="13" fill="#1c2330" font-weight="700">
				<text x="237.3" y="63">18.54</text>
				<text x="448.8" y="107">62.44</text>
				<text x="670.4" y="151">108.43</text>
				<text x="152" y="195">0.84</text>
				<text x="365.5" y="239">45.15</text>
			</g>
		</svg>
